<svg width="56" height="64" fill="none" xmlns="http://www.w3.org/2000/svg">
  <path
    d="M55.38 30.4c-1.09 17.13-15.5 30.28-31.97 33.01V55.52l-.4-.08A27.72 27.72 0 0 1 28 .5h.29c2.92 0 5.84.46 8.62 1.38h.03c.34.1.67.23 1.02.36a31.91 31.91 0 0 0 .96.38A22.75 22.75 0 0 1 42.1 4.2c8.75 5.16 13.94 15.78 13.28 26.2Z"
    stroke="#fff"
  />
  <path
    fill-rule="evenodd"
    clip-rule="evenodd"
    d="M34.11 10.45a3.08 3.08 0 0 0-2.69 1.08c-.52.7-.84 1.36-1.19 2.04a6.6 6.6 0 0 0 .87 6.9A7.59 7.59 0 0 0 36.6 16c.33-.7.52-1.48.53-2.26.1-1.83-1.4-3.12-3.02-3.29Zm-12.55.16c-1.57.15-3.07 1.4-3.07 3.13 0 .7.2 1.57.54 2.26a7.84 7.84 0 0 0 5.65 4.47 6.98 6.98 0 0 0 .7-6.9c-.34-.7-.66-1.37-1.18-1.88a3.03 3.03 0 0 0-2.64-1.08Zm-8.46 8.3a2.97 2.97 0 0 0-1.67 5.33c.7.52 1.36.9 2.05 1.24a7.77 7.77 0 0 0 7.27-.7 7.97 7.97 0 0 0-4.7-5.33 6.16 6.16 0 0 0-2.42-.54c-.2-.02-.36-.01-.54 0h.01Zm26.56 10.45a7.88 7.88 0 0 0-4.47 1.3 7.98 7.98 0 0 0 4.69 5.33c.86.34 1.56.53 2.42.53 3.1.18 4.63-3.66 2.21-5.38-.7-.52-1.36-.84-2.04-1.19a7.46 7.46 0 0 0-2.8-.59Zm-23.54.16c-.95.02-1.9.2-2.8.6-.86.35-1.53.72-2.05 1.24-2.24 1.9-.73 5.5 2.37 5.33.87 0 1.74-.2 2.43-.54 2.41-1.03 4.13-3.1 4.47-5.33a7.73 7.73 0 0 0-4.42-1.3Zm8.73 5.28a7.58 7.58 0 0 0-5.5 4.47c-.34.7-.54 1.52-.54 2.21-.17 2.93 3.83 4.5 5.55 2.26.52-.7.84-1.35 1.19-2.04a7.07 7.07 0 0 0-.7-6.9Zm6.4.16a6.98 6.98 0 0 0-.7 6.9c.34.7.66 1.37 1.18 1.88 1.9 2.07 5.89.54 5.7-2.04 0-.7-.2-1.58-.54-2.27a7.84 7.84 0 0 0-5.65-4.47Z"
    fill="#fff"
  />
</svg>
