<svg
  aria-hidden="true"
  style="position: absolute; width: 0; height: 0; overflow: hidden"
  version="1.1"
  xmlns="http://www.w3.org/2000/svg"
  xmlns:xlink="http://www.w3.org/1999/xlink"
>
  <defs>
    <symbol id="branch" viewBox="0 0 16 16">
      <title>Branch</title>
      <path
        fill-rule="evenodd"
        d="M11.75 2.5a.75.75 0 100 1.5.75.75 0 000-1.5zm-2.25.75a2.25 2.25 0 113 2.122V6A2.5 2.5 0 0110 8.5H6a1 1 0 00-1 1v1.128a2.251 2.251 0 11-1.5 0V5.372a2.25 2.25 0 111.5 0v1.836A2.492 2.492 0 016 7h4a1 1 0 001-1v-.628A2.25 2.25 0 019.5 3.25zM4.25 12a.75.75 0 100 1.5.75.75 0 000-1.5zM3.5 3.25a.75.75 0 111.5 0 .75.75 0 01-1.5 0z"
      ></path>
    </symbol>
    <symbol id="x" viewBox="0 0 16 16">
      <title>X</title>
      <path
        fill-rule="evenodd"
        d="M3.72 3.72a.75.75 0 011.06 0L8 6.94l3.22-3.22a.75.75 0 111.06 1.06L9.06 8l3.22 3.22a.75.75 0 11-1.06 1.06L8 9.06l-3.22 3.22a.75.75 0 01-1.06-1.06L6.94 8 3.72 4.78a.75.75 0 010-1.06z"
      ></path>
    </symbol>
    <symbol id="check" viewBox="0 0 16 16">
      <title>Check</title>
      <path
        fill-rule="evenodd"
        d="M13.78 4.22a.75.75 0 010 1.06l-7.25 7.25a.75.75 0 01-1.06 0L2.22 9.28a.75.75 0 011.06-1.06L6 10.94l6.72-6.72a.75.75 0 011.06 0z"
      ></path>
    </symbol>
    <symbol id="clock" viewBox="0 0 16 16">
      <title>Clock</title>
      <path
        fill-rule="evenodd"
        d="M1.5 8a6.5 6.5 0 1113 0 6.5 6.5 0 01-13 0zM8 0a8 8 0 100 16A8 8 0 008 0zm.5 4.75a.75.75 0 00-1.5 0v3.5a.75.75 0 00.471.696l2.5 1a.75.75 0 00.557-1.392L8.5 7.742V4.75z"
      ></path>
    </symbol>
    <symbol id="git-commit" viewBox="0 0 16 16">
      <title>Git Commit</title>
      <path
        fill-rule="evenodd"
        d="M10.5 7.75a2.5 2.5 0 11-5 0 2.5 2.5 0 015 0zm1.43.75a4.002 4.002 0 01-7.86 0H.75a.75.75 0 110-1.5h3.32a4.001 4.001 0 017.86 0h3.32a.75.75 0 110 1.5h-3.32z"
      ></path>
    </symbol>
    <symbol id="person" viewBox="0 0 16 16">
      <title>Person</title>
      <path
        fill-rule="evenodd"
        d="M10.5 5a2.5 2.5 0 11-5 0 2.5 2.5 0 015 0zm.061 3.073a4 4 0 10-5.123 0 6.004 6.004 0 00-3.431 5.142.75.75 0 001.498.07 4.5 4.5 0 018.99 0 .75.75 0 101.498-.07 6.005 6.005 0 00-3.432-5.142z"
      ></path>
    </symbol>
    <symbol id="expand" viewBox="0 0 16 16">
      <title>Expand</title>
      <path
        fill-rule="evenodd"
        d="M8.177.677l2.896 2.896a.25.25 0 01-.177.427H8.75v1.25a.75.75 0 01-1.5 0V4H5.104a.25.25 0 01-.177-.427L7.823.677a.25.25 0 01.354 0zM7.25 10.75a.75.75 0 011.5 0V12h2.146a.25.25 0 01.177.427l-2.896 2.896a.25.25 0 01-.354 0l-2.896-2.896A.25.25 0 015.104 12H7.25v-1.25zm-5-2a.75.75 0 000-1.5h-.5a.75.75 0 000 1.5h.5zM6 8a.75.75 0 01-.75.75h-.5a.75.75 0 010-1.5h.5A.75.75 0 016 8zm2.25.75a.75.75 0 000-1.5h-.5a.75.75 0 000 1.5h.5zM12 8a.75.75 0 01-.75.75h-.5a.75.75 0 010-1.5h.5A.75.75 0 0112 8zm2.25.75a.75.75 0 000-1.5h-.5a.75.75 0 000 1.5h.5z"
      ></path>
    </symbol>
    <symbol id="collapse" viewBox="0 0 16 16">
      <title>Collapse</title>
      <path
        fill-rule="evenodd"
        d="M10.896 2H8.75V.75a.75.75 0 00-1.5 0V2H5.104a.25.25 0 00-.177.427l2.896 2.896a.25.25 0 00.354 0l2.896-2.896A.25.25 0 0010.896 2zM8.75 15.25a.75.75 0 01-1.5 0V14H5.104a.25.25 0 01-.177-.427l2.896-2.896a.25.25 0 01.354 0l2.896 2.896a.25.25 0 01-.177.427H8.75v1.25zm-6.5-6.5a.75.75 0 000-1.5h-.5a.75.75 0 000 1.5h.5zM6 8a.75.75 0 01-.75.75h-.5a.75.75 0 010-1.5h.5A.75.75 0 016 8zm2.25.75a.75.75 0 000-1.5h-.5a.75.75 0 000 1.5h.5zM12 8a.75.75 0 01-.75.75h-.5a.75.75 0 010-1.5h.5A.75.75 0 0112 8zm2.25.75a.75.75 0 000-1.5h-.5a.75.75 0 000 1.5h.5z"
      ></path>
    </symbol>
    <symbol id="pull-request" viewBox="0 0 16 16">
      <title>Pull Request</title>
      <path
        fill-rule="evenodd"
        d="M7.177 3.073L9.573.677A.25.25 0 0110 .854v4.792a.25.25 0 01-.427.177L7.177 3.427a.25.25 0 010-.354zM3.75 2.5a.75.75 0 100 1.5.75.75 0 000-1.5zm-2.25.75a2.25 2.25 0 113 2.122v5.256a2.251 2.251 0 11-1.5 0V5.372A2.25 2.25 0 011.5 3.25zM11 2.5h-1V4h1a1 1 0 011 1v5.628a2.251 2.251 0 101.5 0V5A2.5 2.5 0 0011 2.5zm1 10.25a.75.75 0 111.5 0 .75.75 0 01-1.5 0zM3.75 12a.75.75 0 100 1.5.75.75 0 000-1.5z"
      ></path>
    </symbol>
    <symbol id="light-bulb" viewBox="0 0 287.9 482.6">
      <title>Light Bulb</title>
      <path
        class="cls-1"
        d="M187 126c-5-7-16-11-26-11-14 0-31 7-31 24 0 18 14 25 35 25v14h-9c-19 2-35 10-35 32s17 33 38 33 34-14 34-37v-42h31v14h-16v28c0 31-17 52-49 52-34 0-55-21-55-48 0-21 12-34 31-41-14-4-21-15-21-30 0-26 22-38 47-38 17 0 31 5 39 15z"
        transform="translate(-19 -16)"
      />
      <path
        class="cls-1"
        d="M159 259c-33 0-56-20-56-49 0-19 10-33 28-41-12-5-19-16-19-30 0-29 27-40 49-40 18 0 32 6 40 16l1 1-15 12-1-1c-5-6-14-10-25-10s-29 4-29 22c0 16 11 23 33 23h1v17h-9c-16 2-34 8-34 31 0 19 14 32 36 32 20 0 33-14 33-36v-44h34v17h-16v27c0 34-19 53-51 53zm2-157c-21 0-46 10-46 37 0 14 8 25 21 29l4 1-4 2c-20 6-31 20-31 39 0 28 22 47 54 47 30 0 48-19 48-51v-29h16v-12h-28v41c0 24-14 39-36 39-24 0-39-14-39-35 0-20 13-31 36-33l7-1v-11c-22 0-34-9-34-26s16-25 32-25c11 0 21 4 26 10l11-8c-7-9-21-14-37-14z"
        transform="translate(-19 -16)"
      />
      <path class="cls-1" d="M134 235h19v122h-19z" />
      <path
        class="cls-1"
        d="M163 16A137 137 0 0019 152a162 162 0 0062 132c8 6 15 13 16 17 2 11 4 28 4 46 1 11 5 17 9 20 7 6 16 6 19 6h33v-19h-35l-4-1-2-7c-1-18-2-36-5-49-2-11-12-19-23-28-6-4-12-10-19-17-16-18-36-50-36-100 0-32 22-117 125-117 98 0 124 76 124 117 0 38-10 69-31 93a181 181 0 01-16 15c-13 12-26 24-30 42-4 21-3 70-3 72v2c0 8-2 11-7 11l-75 1c-2 0-14 0-22 7a23 23 0 00-6 17c0 19 17 25 29 25h78c7 0 7 12 0 12h-83a24 24 0 00-17 6c-3 3-7 9-7 19a22 22 0 007 16c7 7 18 8 23 8h99v-19H121c-7 0-7-12 0-12h81c5 0 13-1 19-7a23 23 0 008-17 23 23 0 00-8-18c-8-7-20-7-24-7h-76c-7 0-7-11 0-11h87c4 0 8-2 12-6 8-7 7-20 7-28 0-3-2-49 2-68 2-11 13-20 24-31a198 198 0 0017-16c24-28 36-64 36-106 0-47-30-136-143-136zM208 387z"
        transform="translate(-19 -16)"
      />
    </symbol>
    <symbol id="rocket" viewBox="0 0 24 24">
      <path
        fill-rule="evenodd"
        d="M20.322.75a10.75 10.75 0 00-7.373 2.926l-1.304 1.23A23.743 23.743 0 0010.103 6.5H5.066a1.75 1.75 0 00-1.5.85l-2.71 4.514a.75.75 0 00.49 1.12l4.571.963c.039.049.082.096.129.14L8.04 15.96l1.872 1.994c.044.047.091.09.14.129l.963 4.572a.75.75 0 001.12.488l4.514-2.709a1.75 1.75 0 00.85-1.5v-5.038a23.741 23.741 0 001.596-1.542l1.228-1.304a10.75 10.75 0 002.925-7.374V2.499A1.75 1.75 0 0021.498.75h-1.177zM16 15.112c-.333.248-.672.487-1.018.718l-3.393 2.262.678 3.223 3.612-2.167a.25.25 0 00.121-.214v-3.822zm-10.092-2.7L8.17 9.017c.23-.346.47-.685.717-1.017H5.066a.25.25 0 00-.214.121l-2.167 3.612 3.223.679zm8.07-7.644a9.25 9.25 0 016.344-2.518h1.177a.25.25 0 01.25.25v1.176a9.25 9.25 0 01-2.517 6.346l-1.228 1.303a22.248 22.248 0 01-3.854 3.257l-3.288 2.192-1.743-1.858a.764.764 0 00-.034-.034l-1.859-1.744 2.193-3.29a22.248 22.248 0 013.255-3.851l1.304-1.23zM17.5 8a1.5 1.5 0 11-3 0 1.5 1.5 0 013 0zm-11 13c.9-.9.9-2.6 0-3.5-.9-.9-2.6-.9-3.5 0-1.209 1.209-1.445 3.901-1.49 4.743a.232.232 0 00.247.247c.842-.045 3.534-.281 4.743-1.49z"
      ></path>
    </symbol>
    <symbol id="chevron-right" viewBox="0 0 24 24">
      <path
        fill-rule="evenodd"
        d="M8.72 18.78a.75.75 0 001.06 0l6.25-6.25a.75.75 0 000-1.06L9.78 5.22a.75.75 0 00-1.06 1.06L14.44 12l-5.72 5.72a.75.75 0 000 1.06z"
      ></path>
    </symbol>
    <symbol id="chevron-left" viewBox="0 0 24 24">
      <path
        fill-rule="evenodd"
        d="M15.28 5.22a.75.75 0 00-1.06 0l-6.25 6.25a.75.75 0 000 1.06l6.25 6.25a.75.75 0 101.06-1.06L9.56 12l5.72-5.72a.75.75 0 000-1.06z"
      ></path>
    </symbol>
    <symbol id="search" viewBox="0 0 24 24">
      <path
        fill-rule="evenodd"
        d="M14.53 15.59a8.25 8.25 0 111.06-1.06l5.69 5.69a.75.75 0 11-1.06 1.06l-5.69-5.69zM2.5 9.25a6.75 6.75 0 1111.74 4.547.746.746 0 00-.443.442A6.75 6.75 0 012.5 9.25z"
      ></path>
    </symbol>

    <symbol id="person" viewBox="0 0 24 24">
      <path
        fill-rule="evenodd"
        d="M12 2.5a5.5 5.5 0 00-3.096 10.047 9.005 9.005 0 00-5.9 8.18.75.75 0 001.5.045 7.5 7.5 0 0114.993 0 .75.75 0 101.499-.044 9.005 9.005 0 00-5.9-8.181A5.5 5.5 0 0012 2.5zM8 8a4 4 0 118 0 4 4 0 01-8 0z"
      />
    </symbol>
  </defs>
</svg>
