<svg
  width="24"
  height="24"
  viewBox="0 0 24 24"
  fill="none"
  xmlns="http://www.w3.org/2000/svg"
>
  <rect width="24" height="24" fill="#141414" />
  <path
    d="M14.8985 12.2162L12.0449 17.3526L13.9622 12.2893L13.9914 12.2118L14.8985 12.2162Z"
    fill="white"
  />
  <path
    d="M12.6707 12.5565L12.6649 12.6031L12.0449 17.3526L11.4245 12.6031L11.4185 12.5565H12.0449"
    fill="white"
  />
  <path
    d="M10.127 12.2893L12.0449 17.3526L9.19098 12.2162L10.0978 12.2118L10.127 12.2893Z"
    fill="white"
  />
  <path
    d="M9.14653 12.2384L9.16817 12.2829L7.58928 12.0138L7.07169 10.7521L8.5348 11.0173L8.54678 11.0192L9.14595 12.2384"
    fill="white"
  />
  <path d="M10.7743 11.0469L11.3913 12.6076L10.1439 12.2829" fill="white" />
  <path d="M13.3152 11.0469L13.9454 12.2829L12.698 12.6076" fill="white" />
  <path
    d="M17.0176 10.7521L16.5 12.0138L14.9211 12.2829L14.943 12.2384H14.9433L15.5427 11.0192L15.5545 11.0173"
    fill="white"
  />
  <path
    d="M14.2378 8.00541L15.538 10.9272L13.3517 10.9301V10.9297L13.6416 8H14.2378"
    fill="white"
  />
  <path
    d="M10.7376 10.9297L12.0449 8L13.3517 10.9297V10.9301H13.3152L12.0449 10.932L10.7743 10.9301H10.7376"
    fill="white"
  />
  <path
    d="M10.7376 10.9297V10.9301L8.55121 10.9272L9.85158 8.00541V8H10.4477"
    fill="white"
  />
  <path
    d="M14.9211 12.2829L16.5 12.0138L12.0449 17.3526L14.8985 12.216L14.9429 12.2384"
    fill="#FF0000"
  />
  <path
    d="M13.9622 12.2892L12.0449 17.3526L12.665 12.6031L12.698 12.6076L13.9454 12.2829"
    fill="#FF0000"
  />
  <path
    d="M11.4245 12.6031L12.0449 17.3526L10.127 12.2892L10.1439 12.2829L11.3913 12.6076"
    fill="#FF0000"
  />
  <path
    d="M9.19096 12.2162L12.0449 17.3526L7.58926 12.0138L9.16815 12.2829L9.1465 12.2384"
    fill="#FF0000"
  />
  <path
    d="M10.7376 10.9301H10.7743V11.0469L10.1439 12.2829L10.127 12.2892L10.0979 12.2117L9.191 12.2162L9.14655 12.2384H9.14597L8.5468 11.0192L8.53482 11.0173L8.55125 10.9272"
    fill="#FF0000"
  />
  <path
    d="M12.6707 12.5565H11.4185L11.4245 12.6031L11.3912 12.6074L10.7743 11.0469V10.9301L12.0449 10.932L13.3151 10.9301V11.0469L12.698 12.6074L12.6649 12.6031"
    fill="#FF0000"
  />
  <path
    d="M15.5382 10.9272L15.5544 11.0173L15.5427 11.0192L14.9433 12.2384H14.9429L14.8985 12.2162L13.9914 12.2117L13.9622 12.2892L13.9454 12.2829L13.3151 11.0469V10.9301H13.3517"
    fill="#FF0000"
  />
  <path
    d="M14.6223 8L17.0893 10.5774L17.0176 10.7521L15.5545 11.0173L15.5382 10.9272L14.2379 8.00541V8"
    fill="#FF0000"
  />
  <path d="M13.6416 8L13.3517 10.9297L12.0449 8" fill="#FF0000" />
  <path d="M12.0449 8L10.7376 10.9297L10.4477 8" fill="#FF0000" />
  <path
    d="M9.85162 8V8.00541L8.55125 10.9272L8.53482 11.0173L7.07171 10.7521L7 10.5774L9.467 8"
    fill="#FF0000"
  />
  <path
    d="M22 12C22 13.3074 21.7489 14.5562 21.2928 15.7006L21.2906 15.6995L19.8035 15.9954L18.874 14.6078C19.1818 13.7975 19.3501 12.9182 19.3501 12C19.3501 8.18185 16.4391 5.04382 12.7151 4.68433L12.7161 4.67334L13.7218 3.31612L12.9615 2.04578C18.0333 2.52917 22 6.80164 22 12Z"
    fill="white"
  />
  <path
    d="M19.5995 16.5412L21.0532 16.2521C19.4553 19.6489 16.0021 22 12 22C7.98654 22 4.52544 19.6359 2.93344 16.2238L2.93547 16.2228L3.74012 14.9374L5.38746 15.2131C6.57907 17.6624 9.0927 19.3501 12 19.3501C14.9387 19.3501 17.4745 17.6254 18.6506 15.1333L18.6594 15.1374"
    fill="white"
  />
  <path
    d="M12.1443 4.64994V4.65157C12.0964 4.65055 12.0484 4.64994 12 4.64994C7.94076 4.64994 4.64994 7.94055 4.64994 12C4.64994 12.9495 4.8302 13.8563 5.15776 14.6896L5.14901 14.6933L3.48275 14.4146L2.6958 15.6713C2.24638 14.535 2 13.2964 2 12C2 6.47713 6.47713 2 12 2C12.1209 2 12.2407 2.00203 12.3605 2.00631L13.1391 3.30778"
    fill="white"
  />
</svg>
